<svg width="64" height="48" viewBox="0 0 64 48" fill="none" xmlns="http://www.w3.org/2000/svg">
<g clip-path="url(#clip0_1_330)">
<path d="M32.23 16.17C33.92 16.22 35.4 16.33 36.53 16.48C38.63 16.76 42.6 19.79 44.53 21.48H34.8C33.9666 19.7066 33.11 17.9366 32.23 16.17Z" fill="#CED1D6"/>
<path d="M23.07 15.94C21.4408 15.9317 19.8131 16.042 18.2 16.27C15.1844 17.6302 12.2495 19.1627 9.40997 20.86L19.11 21.25C20.41 19.4767 21.73 17.7067 23.07 15.94Z" fill="#CED1D6"/>
<path d="M7.00003 20.31L10.81 20.38C12.53 19.48 16.95 17.25 18.37 16.31C20.1 15.16 30.24 15.4 33.95 15.82C37.38 16.2 41.38 19.62 43.33 20.98C57.11 21.98 58.64 22.69 59.42 25.98C60.69 31.26 54.6 28.92 48.31 28.92H28.31C22.07 28.85 5.72003 26 5.72003 24C5.72003 24 5.69003 20.38 7.00003 20.31Z" fill="#FF8E1F"/>
<path d="M19.74 21.13C17.04 21.13 15.3 20.57 15.3 19.88C15.3 18.66 17.68 17.72 18.83 16.95C19.32 16.62 21.55 16.24 26.23 16.24C28.6167 16.2153 31.0031 16.312 33.38 16.53C35.89 16.81 39.21 20.06 40.06 21.13H19.74Z" fill="#081B31"/>
<path d="M29 16.54C30.74 16.54 32.23 16.67 33.33 16.79C35.39 17.02 38.22 19.48 39.47 20.87H29.41C29.3 19.43 29.16 18 29 16.54Z" fill="#CED1D6"/>
<path d="M22.29 16.62C23.29 16.55 24.61 16.51 26.23 16.51H28.43C28.58 17.96 28.72 19.4 28.83 20.85H20.61C21.0816 19.4065 21.6427 17.9938 22.29 16.62Z" fill="#CED1D6"/>
<path d="M5.29999 29.53C5.29999 30.11 13.3 31.33 13.87 31.33H58.37C58.6352 31.33 58.8896 31.2246 59.0771 31.0371C59.2646 30.8495 59.37 30.5952 59.37 30.33V27.76C59.37 27.4948 59.2646 27.2404 59.0771 27.0529C58.8896 26.8653 58.6352 26.76 58.37 26.76L6.36999 24.97C6.10477 24.97 5.85042 25.0753 5.66288 25.2629C5.47534 25.4504 5.36999 25.7048 5.36999 25.97L5.29999 29.53Z" fill="#081B31"/>
<path d="M17.95 17.78C18.33 17.57 18.68 17.37 18.95 17.18C19.7975 16.8603 20.6943 16.6911 21.6 16.68C20.9846 18.0439 20.4504 19.443 20 20.87H19.74C16.74 20.87 15.56 20.23 15.56 19.87C15.56 19.11 16.88 18.37 17.95 17.78Z" fill="#CED1D6"/>
<path d="M4.70001 28.61C4.70001 29.19 12.89 30.41 13.46 30.41H59C59.2652 30.41 59.5196 30.3046 59.7071 30.1171C59.8947 29.9296 60 29.6752 60 29.41V26.84C60 26.5748 59.8947 26.3204 59.7071 26.1329C59.5196 25.9454 59.2652 25.84 59 25.84L5.75001 24C5.4848 24 5.23044 24.1054 5.04291 24.2929C4.85537 24.4804 4.75001 24.7348 4.75001 25L4.70001 28.61Z" fill="#FF8E1F"/>
<path d="M58.82 25.24H55.25C54.83 25.24 54.31 23.13 54.98 23.13C55.65 23.13 58.82 23.63 58.82 25.24Z" fill="#CED1D6"/>
<path d="M13.46 30.42C13.26 30.42 12.14 30.27 10.76 30.06C10.6264 29.6225 10.559 29.1675 10.56 28.71C10.56 27.4688 11.0531 26.2784 11.9307 25.4008C12.8084 24.5231 13.9988 24.03 15.24 24.03C16.4812 24.03 17.6716 24.5231 18.5493 25.4008C19.4269 26.2784 19.92 27.4688 19.92 28.71C19.9194 29.2958 19.8074 29.8761 19.59 30.42H13.46Z" fill="#081B31"/>
<path d="M45.26 30.42C45.0426 29.8761 44.9306 29.2958 44.93 28.71C44.93 27.4688 45.4231 26.2784 46.3007 25.4008C47.1784 24.5231 48.3688 24.03 49.61 24.03C50.8512 24.03 52.0416 24.5231 52.9193 25.4008C53.7969 26.2784 54.29 27.4688 54.29 28.71C54.3021 29.2932 54.2037 29.8734 54 30.42H45.26Z" fill="#081B31"/>
<path d="M49.61 32.54C51.7253 32.54 53.44 30.8253 53.44 28.71C53.44 26.5948 51.7253 24.88 49.61 24.88C47.4948 24.88 45.78 26.5948 45.78 28.71C45.78 30.8253 47.4948 32.54 49.61 32.54Z" fill="#081B31"/>
<path d="M51.4561 30.547C52.4754 29.5278 52.4754 27.8752 51.4561 26.8559C50.4369 25.8367 48.7843 25.8367 47.765 26.8559C46.7458 27.8752 46.7458 29.5278 47.765 30.547C48.7843 31.5663 50.4369 31.5663 51.4561 30.547Z" fill="#CED1D6"/>
<path d="M51.15 27.16C50.15 26.16 50.41 27.81 49.56 28.66C48.71 29.51 47.04 29.23 48.06 30.25C49.08 31.27 48.8 29.6 49.65 28.75C50.5 27.9 52.17 28.18 51.15 27.16Z" fill="#081B31"/>
<path d="M48.06 27.16C47.06 28.16 48.71 27.9 49.56 28.75C50.41 29.6 50.13 31.27 51.15 30.25C52.17 29.23 50.5 29.51 49.65 28.66C48.8 27.81 49.08 26.14 48.06 27.16Z" fill="#081B31"/>
<path d="M50.1126 29.2135C50.3899 28.9363 50.3899 28.4867 50.1126 28.2094C49.8354 27.9322 49.3858 27.9322 49.1086 28.2094C48.8313 28.4867 48.8313 28.9363 49.1086 29.2135C49.3858 29.4908 49.8354 29.4908 50.1126 29.2135Z" fill="#CED1D6"/>
<path d="M15.24 32.54C17.3552 32.54 19.07 30.8253 19.07 28.71C19.07 26.5948 17.3552 24.88 15.24 24.88C13.1247 24.88 11.41 26.5948 11.41 28.71C11.41 30.8253 13.1247 32.54 15.24 32.54Z" fill="#081B31"/>
<path d="M17.0929 30.5603C18.1122 29.541 18.1122 27.8884 17.0929 26.8692C16.0737 25.8499 14.4211 25.8499 13.4018 26.8692C12.3826 27.8884 12.3826 29.541 13.4018 30.5603C14.4211 31.5795 16.0737 31.5795 17.0929 30.5603Z" fill="#CED1D6"/>
<path d="M16.79 27.16C15.79 26.16 16.05 27.81 15.2 28.66C14.35 29.51 12.68 29.23 13.7 30.25C14.72 31.27 14.44 29.6 15.29 28.75C16.14 27.9 17.81 28.18 16.79 27.16Z" fill="#081B31"/>
<path d="M13.7 27.16C12.7 28.16 14.35 27.9 15.2 28.75C16.05 29.6 15.77 31.27 16.79 30.25C17.81 29.23 16.14 29.51 15.29 28.66C14.44 27.81 14.72 26.14 13.7 27.16Z" fill="#081B31"/>
<path d="M15.7494 29.2168C16.0266 28.9395 16.0266 28.4899 15.7494 28.2127C15.4721 27.9354 15.0225 27.9354 14.7453 28.2127C14.468 28.4899 14.468 28.9395 14.7453 29.2168C15.0225 29.494 15.4721 29.494 15.7494 29.2168Z" fill="#CED1D6"/>
<path d="M39.69 20H40.38C40.6718 20.0138 40.9522 20.1172 41.183 20.2961C41.4139 20.4751 41.5839 20.7209 41.67 21C41.7071 21.1182 41.7152 21.2436 41.6935 21.3655C41.6719 21.4875 41.6211 21.6024 41.5455 21.7006C41.4699 21.7987 41.3718 21.8772 41.2594 21.9293C41.147 21.9815 41.0237 22.0057 40.9 22H40.21L39.69 20Z" fill="#FFD400"/>
<path d="M29.06 21.93C29.06 21.9812 29.0701 22.0319 29.0897 22.0792C29.1093 22.1265 29.138 22.1695 29.1742 22.2057C29.2104 22.242 29.2534 22.2707 29.3008 22.2903C29.3481 22.3099 29.3988 22.32 29.45 22.32H32.2C32.3034 22.32 32.4026 22.2789 32.4758 22.2057C32.5489 22.1326 32.59 22.0334 32.59 21.93C32.59 21.8265 32.5489 21.7273 32.4758 21.6542C32.4026 21.5811 32.3034 21.54 32.2 21.54H29.45C29.3988 21.54 29.3481 21.5501 29.3008 21.5697C29.2534 21.5893 29.2104 21.618 29.1742 21.6542C29.138 21.6904 29.1093 21.7334 29.0897 21.7807C29.0701 21.828 29.06 21.8788 29.06 21.93Z" fill="#081B31"/>
<path d="M20 21.93C20 22.0334 20.0411 22.1326 20.1142 22.2057C20.1874 22.2789 20.2866 22.32 20.39 22.32H23.14C23.2434 22.32 23.3426 22.2789 23.4158 22.2057C23.4889 22.1326 23.53 22.0334 23.53 21.93C23.53 21.8265 23.4889 21.7273 23.4158 21.6542C23.3426 21.5811 23.2434 21.54 23.14 21.54H20.42C20.3166 21.54 20.2174 21.5811 20.1442 21.6542C20.0711 21.7273 20.03 21.8265 20.03 21.93H20Z" fill="#081B31"/>
<g style="mix-blend-mode:multiply">
<path d="M6.06998 21.37H7.25998C7.32957 21.3661 7.399 21.3801 7.4617 21.4105C7.52441 21.4409 7.57833 21.4868 7.61837 21.5439C7.6584 21.6009 7.68323 21.6672 7.69051 21.7365C7.6978 21.8059 7.68729 21.8759 7.65998 21.94L7.21998 23.42C7.16808 23.5783 7.06975 23.7173 6.93777 23.819C6.8058 23.9207 6.64628 23.9802 6.47998 23.99H5.47998C5.52998 23.42 5.53998 21.91 6.06998 21.37Z" fill="#FF8E1F"/>
</g>
</g>
<defs>
<clipPath id="clip0_1_330">
<rect width="64" height="48" fill="white"/>
</clipPath>
</defs>
</svg>
