<svg width="24" height="24" viewBox="0 0 24 24" fill="none" xmlns="http://www.w3.org/2000/svg">
<mask id="mask0_1_225" style="mask-type:alpha" maskUnits="userSpaceOnUse" x="0" y="0" width="24" height="24">
<rect width="24" height="24" fill="#D9D9D9"/>
</mask>
<g mask="url(#mask0_1_225)">
<path d="M18.9 21L13.425 15.525L15.525 13.425L21 18.9L18.9 21ZM5.1 21L3 18.9L9.9 12L8.2 10.3L7.5 11L6.225 9.72498V11.775L5.525 12.475L2.5 9.44998L3.2 8.74998H5.25L4 7.49998L7.55 3.94998C7.88333 3.61664 8.24167 3.37498 8.625 3.22498C9.00833 3.07498 9.4 2.99998 9.8 2.99998C10.2 2.99998 10.5917 3.07498 10.975 3.22498C11.3583 3.37498 11.7167 3.61664 12.05 3.94998L9.75 6.24998L11 7.49998L10.3 8.19998L12 9.89998L14.25 7.64998C14.1833 7.46664 14.1293 7.27498 14.088 7.07498C14.046 6.87498 14.025 6.67498 14.025 6.47498C14.025 5.49164 14.3627 4.66231 15.038 3.98698C15.7127 3.31231 16.5417 2.97498 17.525 2.97498C17.775 2.97498 18.0127 2.99998 18.238 3.04998C18.4627 3.09998 18.6917 3.17498 18.925 3.27498L16.45 5.74998L18.25 7.54998L20.725 5.07498C20.8417 5.30831 20.921 5.53731 20.963 5.76198C21.0043 5.98731 21.025 6.22498 21.025 6.47498C21.025 7.45831 20.6877 8.28731 20.013 8.96198C19.3377 9.63731 18.5083 9.97498 17.525 9.97498C17.325 9.97498 17.125 9.95831 16.925 9.92498C16.725 9.89164 16.5333 9.83331 16.35 9.74998L5.1 21Z" fill="#081B31"/>
</g>
</svg>
